<?xml version="1.0" encoding="iso-8859-1"?>
<!-- Generator: Adobe Illustrator 19.0.0, SVG Export Plug-In . SVG Version: 6.00 Build 0)  -->
<svg version="1.1" id="Layer_1" xmlns="http://www.w3.org/2000/svg" xmlns:xlink="http://www.w3.org/1999/xlink" x="0px" y="0px"
	 viewBox="0 0 512 512" style="enable-background:new 0 0 512 512;" xml:space="preserve">
<path style="fill:#6A82A1;" d="M279.551,428.954c-4.849-8.389-13.874-13.6-23.551-13.6c-9.677,0-18.702,5.211-23.551,13.599
	c-5.84,10.103-18.762,13.562-28.87,7.727l-77.84-44.951c-10.103-5.834-13.569-18.748-7.746-28.856
	c4.839-8.402,4.843-18.823,0.008-27.199c-4.835-8.385-13.861-13.593-23.56-13.6c-11.668-0.008-21.121-9.47-21.121-21.138v-89.872
	c0-11.668,9.453-21.13,21.121-21.138c9.7-0.007,18.725-5.215,23.555-13.593c4.839-8.383,4.835-18.806-0.004-27.206
	c-5.823-10.108-2.356-23.022,7.746-28.856l77.84-44.951c10.105-5.837,23.031-2.377,28.87,7.727
	c10.455,18.089,36.632,18.108,47.101,0c5.843-10.104,18.768-13.561,28.87-7.727l77.843,44.952
	c10.103,5.834,13.569,18.748,7.746,28.856c-4.841,8.402-4.843,18.823-0.01,27.199c4.835,8.385,13.861,13.593,23.56,13.6
	c11.667,0.008,21.121,9.47,21.121,21.138v89.872c0,11.668-9.454,21.13-21.121,21.138c-9.7,0.007-18.725,5.215-23.555,13.592
	c-4.839,8.385-4.836,18.806,0.004,27.207c5.823,10.108,2.356,23.022-7.746,28.856l-77.84,44.951
	C298.318,442.515,285.392,439.058,279.551,428.954z M302.713,391.158l46.984-27.131c-7.577-35.067,12.546-69.943,46.709-80.908
	v-54.237c-34.158-10.965-54.29-45.84-46.709-80.908l-46.984-27.131c-12.622,11.444-29.249,18.08-46.712,18.08
	c-17.463,0-34.09-6.636-46.711-18.08l-46.984,27.131c7.579,35.064-12.546,69.943-46.709,80.908v54.237
	c34.158,10.965,54.288,45.839,46.709,80.908l46.984,27.131C235.818,367.104,276.095,367.027,302.713,391.158z"/>
<path style="fill:#2C3E50;" d="M417.56,189.925c-9.7-0.007-18.725-5.215-23.56-13.6c-4.834-8.376-4.831-18.797,0.01-27.199
	c5.823-10.108,2.356-23.022-7.746-28.856l-77.84-44.951c-10.103-5.834-23.029-2.379-28.87,7.727
	c-4.845,8.381-13.862,13.6-23.551,13.6v42.276l0,0c17.463,0,34.09-6.637,46.712-18.08l46.984,27.131
	c-7.58,35.064,12.548,69.942,46.709,80.908v54.237c-34.158,10.965-54.287,45.84-46.709,80.908l-46.984,27.131
	c-12.487-11.32-29.07-18.08-46.712-18.08v42.276l0,0c9.677,0,18.702,5.211,23.551,13.6c5.841,10.104,18.765,13.562,28.87,7.727
	l77.84-44.951c10.103-5.834,13.569-18.748,7.746-28.856c-4.841-8.402-4.842-18.823-0.004-27.207
	c4.829-8.376,13.855-13.585,23.555-13.592c11.667-0.008,21.121-9.47,21.121-21.138v-89.872
	C438.681,199.397,429.227,189.935,417.56,189.925z"/>
<path style="fill:#6A82A1;" d="M228.441,358.098l-47.08-27.182c-10.11-5.837-13.573-18.765-7.737-28.875
	c5.837-10.111,18.762-13.576,28.875-7.737l47.08,27.182c10.11,5.837,13.573,18.765,7.737,28.875
	C251.479,360.473,238.548,363.934,228.441,358.098z"/>
<path style="fill:#2C3E50;" d="M309.494,217.687l-47.08-27.182c-10.11-5.837-13.573-18.765-7.737-28.875
	c5.837-10.111,18.764-13.575,28.875-7.737l47.08,27.182c10.111,5.837,13.575,18.765,7.737,28.875
	C332.527,220.067,319.595,223.519,309.494,217.687z"/>
<path style="fill:#FFDA79;" d="M256.001,138.922c-38.298,0-69.455-31.157-69.455-69.455C186.547,31.163,217.704,0,256.001,0
	s69.454,31.163,69.454,69.468C325.456,108.183,293.907,138.922,256.001,138.922z"/>
<path style="fill:#FFD155;" d="M256.001,0L256.001,0v138.922l0,0c37.884,0,69.454-30.716,69.454-69.455
	C325.456,31.163,294.299,0,256.001,0z"/>
<path style="fill:#FFDA79;" d="M256.001,512c-38.298,0-69.455-31.163-69.455-69.468c0-70.879,94.269-95.864,129.606-34.737
	c6.082,10.504,9.304,22.52,9.304,34.737C325.455,480.837,294.299,512,256.001,512z"/>
<g>
	<path style="fill:#FFD155;" d="M256.001,373.078V512l0,0c38.298,0,69.454-31.163,69.454-69.468
		C325.456,403.832,293.917,373.078,256.001,373.078z"/>
	<path style="fill:#FFD155;" d="M417.555,232.183c-38.298,0-69.455-31.157-69.455-69.455c0-38.305,31.157-69.468,69.455-69.468
		s69.454,31.163,69.454,69.468c0,12.218-3.22,24.234-9.311,34.752C465.326,218.88,442.278,232.183,417.555,232.183z"/>
</g>
<path style="fill:#FFC72D;" d="M417.555,93.26L417.555,93.26v138.923l0,0c24.723,0,47.771-13.303,60.143-34.703
	c6.091-10.518,9.311-22.535,9.311-34.752C487.01,124.424,455.852,93.26,417.555,93.26z"/>
<path style="fill:#FFD155;" d="M417.555,418.74c-38.298,0-69.455-31.158-69.455-69.455c0-38.305,31.157-69.468,69.455-69.468
	s69.454,31.163,69.454,69.468C487.01,388,455.461,418.74,417.555,418.74z"/>
<path style="fill:#FFC72D;" d="M417.555,279.817L417.555,279.817V418.74l0,0c37.884,0,69.454-30.716,69.454-69.455
	C487.01,310.98,455.852,279.817,417.555,279.817z"/>
<path style="fill:#FFDA79;" d="M94.447,232.183c-38.298,0-69.455-31.157-69.455-69.455c0-38.305,31.157-69.468,69.455-69.468
	s69.454,31.163,69.454,69.468C163.901,201.443,132.353,232.183,94.447,232.183z"/>
<path style="fill:#FFD155;" d="M94.447,93.26L94.447,93.26v138.923l0,0c37.884,0,69.454-30.716,69.454-69.455
	C163.901,124.424,132.745,93.26,94.447,93.26z"/>
<path style="fill:#FFDA79;" d="M94.447,418.74c-38.298,0-69.455-31.158-69.455-69.455c0-38.305,31.157-69.468,69.455-69.468
	s69.454,31.163,69.454,69.468c0,12.216-3.22,24.234-9.311,34.752C142.219,405.438,119.17,418.74,94.447,418.74z"/>
<path style="fill:#FFD155;" d="M94.447,279.817L94.447,279.817V418.74l0,0c24.723,0,47.771-13.303,60.143-34.703
	c6.091-10.518,9.311-22.535,9.311-34.752C163.901,310.98,132.745,279.817,94.447,279.817z"/>
<g>
</g>
<g>
</g>
<g>
</g>
<g>
</g>
<g>
</g>
<g>
</g>
<g>
</g>
<g>
</g>
<g>
</g>
<g>
</g>
<g>
</g>
<g>
</g>
<g>
</g>
<g>
</g>
<g>
</g>
</svg>
