<?xml version="1.0" encoding="iso-8859-1"?>
<!-- Generator: Adobe Illustrator 19.0.0, SVG Export Plug-In . SVG Version: 6.00 Build 0)  -->
<svg version="1.1" id="Layer_1" xmlns="http://www.w3.org/2000/svg" xmlns:xlink="http://www.w3.org/1999/xlink" x="0px" y="0px"
	 viewBox="0 0 512 512" style="enable-background:new 0 0 512 512;" xml:space="preserve">
<circle style="fill:#FFC61B;" cx="256" cy="256" r="256"/>
<path style="fill:#EAA22F;" d="M510,288.111L353.08,130.405L180.293,244.938l-2.012-0.79l-76.464,51.898l210.377,209.751
	C416.358,482.466,496.54,395.664,510,288.111z"/>
<polygon style="fill:#273B7A;" points="279.817,336.362 119.094,256 279.817,175.638 289.071,194.139 165.35,256 289.071,317.861 
	"/>
<path style="fill:#121149;" d="M137.19,265.047l142.629,71.315l9.252-18.501L171.88,259.265
	C160.396,261.66,148.88,263.811,137.19,265.047z"/>
<circle style="fill:#386895;" cx="142.222" cy="256" r="56.889"/>
<path style="fill:#273B7A;" d="M199.111,256c0,31.418-25.471,56.889-56.889,56.889S85.333,287.418,85.333,256H199.111z"/>
<circle style="fill:#386895;" cx="312.889" cy="170.667" r="56.889"/>
<circle style="fill:#273B7A;" cx="312.889" cy="341.333" r="56.889"/>
<g>
</g>
<g>
</g>
<g>
</g>
<g>
</g>
<g>
</g>
<g>
</g>
<g>
</g>
<g>
</g>
<g>
</g>
<g>
</g>
<g>
</g>
<g>
</g>
<g>
</g>
<g>
</g>
<g>
</g>
</svg>
