<?xml version="1.0" encoding="iso-8859-1"?>
<!-- Generator: Adobe Illustrator 19.0.0, SVG Export Plug-In . SVG Version: 6.00 Build 0)  -->
<svg version="1.1" id="Layer_1" xmlns="http://www.w3.org/2000/svg" xmlns:xlink="http://www.w3.org/1999/xlink" x="0px" y="0px"
	 viewBox="0 0 512 512" style="enable-background:new 0 0 512 512;" xml:space="preserve">
<circle style="fill:#25B7D3;" cx="256" cy="256" r="256"/>
<path style="fill:#DF2C2C;" d="M115.754,256c-1.718,0-3.295-0.945-4.105-2.458c-0.81-1.513-0.721-3.351,0.233-4.78l29.649-44.474
	c1.722-2.588,4.631-4.143,7.741-4.143h213.457c3.114,0,6.018,1.555,7.745,4.147l29.649,44.474c0.954,1.429,1.043,3.263,0.233,4.78
	c-0.81,1.517-2.392,2.453-4.11,2.453H115.754z"/>
<polygon style="fill:#F0F1F1;" points="311.855,256 311.855,207.127 256,165.236 200.145,208.431 200.145,256 125.673,256 
	125.673,386.327 386.327,386.327 386.327,256 "/>
<g>
	<rect x="311.855" y="274.618" style="fill:#40C9E7;" width="55.855" height="37.236"/>
	<rect x="311.855" y="330.473" style="fill:#40C9E7;" width="55.855" height="37.236"/>
</g>
<polygon style="fill:#FACB1B;" points="335.127,130.327 260.655,148.945 260.655,111.709 "/>
<polygon style="fill:#FBE158;" points="260.655,111.709 260.655,148.945 273.585,145.715 298.203,121.097 "/>
<path style="fill:#FFFFFF;" d="M404.945,404.945H107.055v-9.309c0-5.143,4.166-9.309,9.309-9.309h279.273
	c5.143,0,9.309,4.166,9.309,9.309V404.945z"/>
<path style="fill:#84462D;" d="M293.236,349.091c0-20.564-16.673-37.236-37.236-37.236c-20.564,0-37.236,16.673-37.236,37.236
	v37.236h74.473V349.091z"/>
<g>
	<circle style="fill:#D4A263;" cx="265.309" cy="358.4" r="4.655"/>
	<circle style="fill:#D4A263;" cx="246.691" cy="358.4" r="4.655"/>
</g>
<polygon style="fill:#FFFFFF;" points="256,165.236 200.145,208.431 200.145,256 125.673,256 125.673,386.327 158.641,386.327 
	311.855,233.114 311.855,207.127 "/>
<path style="fill:#84462D;" d="M256,153.6l4.655,3.491v-45.382c0-2.569-2.085-4.655-4.655-4.655c-2.569,0-4.655,2.085-4.655,4.655
	v45.48L256,153.6z"/>
<path style="fill:#FA5655;" d="M313.716,208.524L256,165.236l-58.531,45.265c-2.057,1.55-4.971,1.126-6.516-0.931
	c-1.541-2.057-1.126-4.976,0.931-6.516L256,153.6l63.302,47.476c2.057,1.541,2.472,4.459,0.931,6.516
	C318.678,209.664,315.76,210.06,313.716,208.524z"/>
<circle style="fill:#9CE5F4;" cx="256" cy="228.073" r="27.927"/>
<path style="fill:#40C9E7;" d="M265.309,237.382h-13.964v-23.273c0-2.569,2.085-4.655,4.655-4.655c2.569,0,4.655,2.085,4.655,4.655
	v13.964h4.655c2.569,0,4.655,2.085,4.655,4.655S267.878,237.382,265.309,237.382z"/>
<rect x="144.291" y="274.618" style="fill:#6FDAF1;" width="55.855" height="37.236"/>
<rect x="144.291" y="330.473" style="fill:#40C9E7;" width="55.855" height="37.236"/>
<polygon style="fill:#6FDAF1;" points="200.145,344.823 200.145,330.473 144.291,330.473 144.291,367.709 177.259,367.709 "/>
<g>
</g>
<g>
</g>
<g>
</g>
<g>
</g>
<g>
</g>
<g>
</g>
<g>
</g>
<g>
</g>
<g>
</g>
<g>
</g>
<g>
</g>
<g>
</g>
<g>
</g>
<g>
</g>
<g>
</g>
</svg>
